<svg id="Layer_1" data-name="Layer 1" xmlns="http://www.w3.org/2000/svg" viewBox="0 0 1995 440.91"><defs><style>.cls-1{fill:#fff;}</style></defs><title>Artboard 1</title><path class="cls-1" d="M0,213.65a227.18,227.18,0,0,1,3.54-32.49A218.05,218.05,0,0,1,31.2,107.53c21.25-35.44,50.3-62.72,86.73-82.09A220.35,220.35,0,0,1,269.65,5.55a216.11,216.11,0,0,1,65,26.12c33.18,20.16,59.54,47,78.61,80.93a220.27,220.27,0,0,1,27.42,87.54A216.15,216.15,0,0,1,435,274.48,220.61,220.61,0,0,1,306.62,424.34a221.1,221.1,0,0,1-62.36,16.09,130.75,130.75,0,0,1-13.29.45c-7.86.06-15.73,0-23.59,0-15.21,0-29.94-3.22-44.61-6.81l-3-.76a.05.05,0,0,1,0-.08c.88-1.1,1.46-2,2.16-2.74,17.21-19,26.92-41.22,28.65-66.82.37-5.43.24-10.9.24-16.35q0-32.52,0-65.05v-4.64a.09.09,0,0,1,.13-.07c1.57.88,2.49,1.34,3.36,1.9,17.37,11.26,36.35,15.47,56.67,11.81a77.78,77.78,0,0,0,62.65-60.49,103,103,0,0,0,1.79-15.07c.3-5-2.29-7.48-7.3-7.65-1.14,0-2.28,0-3.42,0H191.16a.09.09,0,0,1-.09-.09v-8a.09.09,0,0,1,.08-.09c1.59-.07,3-.19,4.48-.19h118.3c1.27,0,2.55.06,3.81,0a6.42,6.42,0,0,0,5.9-5.9,6.35,6.35,0,0,0-5.49-6.31,30,30,0,0,0-4.55-.16H190.88a.1.1,0,0,1-.08-.06l-1.3-4.34a28.78,28.78,0,0,0-31.33-20.36c-14.81,2.17-25.06,14-25.07,28.88q0,62.58.07,125.15c0,3.34-.91,5.19-3.9,6.87-24,13.42-47.9,27-71.84,40.6-1,.55-2,1-3.31,1.73a.08.08,0,0,1-.11,0c-1.24-1.41-2.5-2.75-3.66-4.17-22.19-27.32-37.44-58-45.11-92.45A227.5,227.5,0,0,1,.09,231"/><path class="cls-1" d="M1995,298.75h-94.4V141.65c2.65-.76,24.25-1,31.35-.3V267.2h63Z"/><path class="cls-1" d="M1273.29,227.15V141h31.46q0,80.24,0,160.06a1.78,1.78,0,0,1-.36.14.77.77,0,0,1-.34,0,1.14,1.14,0,0,1-.34-.19,6.91,6.91,0,0,1-.57-.51l-91.83-87.62a.84.84,0,0,0-.33-.19,7.35,7.35,0,0,0-.74,0v85.75c-3,1.05-23.66,1.38-31.25.64a3.7,3.7,0,0,1-.28-.28c-.09-.09-.22-.19-.23-.29a24,24,0,0,1-.2-2.68q0-78.08.09-156.15c0-.21.23-.43.63-1.16q23.45,22.38,46.67,44.54l46.71,44.56Z"/><path class="cls-1" d="M1734.5,227.1V140.93h31.62V301.2c-1.57,0-2.31-1.37-3.25-2.26q-30.34-28.92-60.66-57.88-13.77-13.14-27.55-26.28c-.89-.85-1.85-1.63-3.44-3V299h-31c-.78-2.93-1-155.44-.17-160.81l46.85,44.69q23.34,22.26,46.67,44.55Z"/><path class="cls-1" d="M602.09,140.94H696.6V172.2H634.06c-.93,3-1.18,25.4-.42,31.86l23.2,0H680.2c.81,2.91,1,25.78.31,31.48h-47v32.05h63.16c.19,10.59,0,20.77.1,30.87-2.94.91-89.17,1.19-94.62.4C601.46,296,601.31,145.13,602.09,140.94Z"/><path class="cls-1" d="M1867.79,235.64h-47.07v31.92c4.12.05,8.29.11,12.46.13s8.46,0,12.69,0h37.88v30.92c-2.89.78-90.22.94-94.7.16V141.38c2.67-.86,88.91-1.18,94.87-.27.18,10.19,0,20.47.09,31.15h-63.26V204h47Z"/><path class="cls-1" d="M505.65,251.5v46.6c-2.94.81-24.81,1.06-31.47.39V141.22c1.07-.07,2.06-.18,3.05-.18,17.69,0,35.39-.12,53.08,0a54.9,54.9,0,0,1,53,43.17c8,37.2-19.82,63.07-45.34,66.55a124.12,124.12,0,0,1-14.58.68C517.68,251.58,511.92,251.5,505.65,251.5Zm.08-31.52c9,0,17.63.62,26.13-.15a23.37,23.37,0,0,0,21-24.68,24,24,0,0,0-24.14-22.67c-6.66.22-13.33,0-20,.05-1,0-1.95.19-3,.3Z"/><path class="cls-1" d="M1389.89,141.16c1.11,0,2-.12,2.89-.12,17.57,0,35.14-.29,52.7.07,23.8.49,41.23,12.1,50.29,33.66,16,38.16-11.32,71.65-42.51,76-5.55.79-11.26.55-16.89.66-4.86.1-9.72,0-15.09,0-.25,5.35-.1,10.43-.12,15.49,0,5.26,0,10.52,0,15.78v15.32c-2.81.84-23.75,1.11-31.07.46C1389.34,295.84,1389.12,146.51,1389.89,141.16Zm31.47,78.4a4.56,4.56,0,0,0,1.23.46c7.94,0,15.92.47,23.83,0a23.9,23.9,0,0,0,22.16-24.19,24.16,24.16,0,0,0-24-23.28c-6.79-.06-13.59,0-20.38,0a25.14,25.14,0,0,0-2.88.34Z"/><path class="cls-1" d="M987.25,254.55l22.23,22.16c-23.84,26.48-73.93,33.13-107.58,4.68C865,250.24,865,195.63,896.35,163.83c35-35.55,86.8-27.29,112.92-.57l-22.45,22.47c-11.13-11-25.17-15.16-41.06-13-12.11,1.68-21.79,7.86-29.49,17.23-15.61,19-14,46.33,3.18,64.06C936.29,271.4,967.23,274,987.25,254.55Z"/><path class="cls-1" d="M1161.58,298.61h-34.32l-10.6-23.6h-54.05l-10.55,23.55h-34.24c23.9-53.5,47.66-106.65,71.82-160.72Zm-86.28-52H1104l-14.24-33Z"/><path class="cls-1" d="M1550.93,138.76l71.51,159.82h-34.31L1577.54,275h-54.06c-3.51,7.82-7,15.64-10.56,23.57h-34.24l71.4-159.79Zm-.32,74.77c-4.94,11.52-9.86,22.08-14.36,33.34,9.83,0,19,0,28.7,0C1560.11,235.61,1555.58,225.07,1550.61,213.53Z"/><path class="cls-1" d="M713.28,298.53V141.72c2.73-.85,23.14-1.14,31.5-.41,0,5.9.05,11.86.06,17.82s0,11.79,0,17.69v90.26h62.73c.95,2.95,1.2,25.79.41,31.45Z"/><path class="cls-1" d="M856.58,298.63H825.74c-.76-2.83-1-151.38-.26-157.31h30.86C857.06,144,857.35,292,856.58,298.63Z"/></svg>